<svg width="24" height="24" viewBox="0 0 24 24" fill="none" xmlns="http://www.w3.org/2000/svg">
<path d="M12.1135 6.49994C12.644 6.49994 13.1503 6.39669 13.6135 6.20918C14.7769 5.73825 15.6683 4.73588 15.9867 3.5031C16.0695 3.18253 16.1135 2.84638 16.1135 2.49994V1.99994C15.5831 1.99994 15.0767 2.10319 14.6135 2.2907C13.4501 2.76162 12.5587 3.764 12.2403 4.99678C12.1576 5.31735 12.1135 5.6535 12.1135 5.99994V6.49994Z" fill="white"/>
<path fill-rule="evenodd" clip-rule="evenodd" d="M16.7956 6.27231C15.5769 5.96766 14.2788 6.27853 13.3615 6.60612C12.889 6.77485 12.4858 6.95975 12.2002 7.10253C12.1678 7.1187 12.1369 7.13436 12.1076 7.14943C11.9154 7.05306 11.659 6.93092 11.367 6.80836C10.758 6.55274 9.89042 6.24992 9.11366 6.24992C8.17176 6.24992 7.30137 6.3843 6.51138 6.76024C5.71331 7.14002 5.05204 7.74016 4.4896 8.58393C3.96066 9.37744 3.59539 10.0909 3.40576 10.9661C3.22012 11.8227 3.21427 12.783 3.31555 14.0523C3.37703 15.0559 3.94162 16.8367 4.84428 18.4743C5.74213 20.1032 7.09805 21.8184 8.8765 22.4112C9.82311 22.7267 10.5727 22.4564 11.1496 22.2066C11.2312 22.1713 11.3083 22.1372 11.3821 22.1046C11.8537 21.8962 12.1848 21.7499 12.6137 21.7499C13.097 21.7499 13.4627 21.8912 13.9583 22.0828L14.0859 22.132C14.6398 22.3447 15.3243 22.5816 16.229 22.4408C17.0743 22.3092 17.7767 21.8255 18.3321 21.2661C18.8907 20.7035 19.3506 20.0146 19.7116 19.369C20.0749 18.7193 20.3525 18.087 20.539 17.6195C20.6325 17.3849 20.704 17.1896 20.7525 17.0516C20.7767 16.9826 20.7953 16.9277 20.808 16.8893L20.8228 16.8443L20.8269 16.8315L20.8282 16.8276L20.8288 16.8255L21.031 16.1843L20.419 15.915L20.4101 15.9108C20.3996 15.9057 20.3809 15.8965 20.3552 15.883C20.3037 15.8559 20.2247 15.8118 20.1273 15.7495C19.9315 15.6242 19.6677 15.429 19.4043 15.155C18.8847 14.6147 18.3637 13.7679 18.3637 12.4999C18.3637 11.4694 18.7701 10.7652 19.1743 10.3105C19.3791 10.08 19.5839 9.91382 19.7347 9.80701C19.8097 9.75389 19.8701 9.71636 19.9085 9.69369C19.9277 9.68237 19.9414 9.67484 19.9485 9.67099L19.9541 9.66799L20.5563 9.3669L20.3145 8.73254L20.3142 8.73155L20.3138 8.73054L20.3068 8.71289C20.3035 8.70498 20.2997 8.69572 20.2951 8.6852C20.286 8.66415 20.274 8.63799 20.2589 8.60731C20.2286 8.54595 20.1856 8.4664 20.1267 8.37329C20.0087 8.18681 19.8278 7.94678 19.5603 7.6903C19.021 7.17325 18.1532 6.6117 16.7956 6.27231Z" fill="white"/>
</svg>
