<svg width="120" height="120" viewBox="0 0 120 120" fill="none" xmlns="http://www.w3.org/2000/svg">
<path fill-rule="evenodd" clip-rule="evenodd" d="M27.0996 0H92.9004C100.081 0.0207088 106.962 2.89579 112.04 7.99716C117.118 13.0985 119.979 20.0115 120 27.2259V92.7839C119.977 99.9966 117.114 106.907 112.037 112.006C106.959 117.106 100.08 119.979 92.9004 120H27.0996C19.9204 119.979 13.0409 117.106 7.9635 112.006C2.88607 106.907 0.0231876 99.9966 0 92.7839V27.2259C0.0206128 20.0115 2.88236 13.0985 7.96006 7.99716C13.0378 2.89579 19.9187 0.0207088 27.0996 0Z" fill="#0A66C2"/>
<path fill-rule="evenodd" clip-rule="evenodd" d="M48.0371 46.5146H63.2031V54.3635H63.418C65.5371 50.5568 70.6934 46.5146 78.3984 46.5146C94.4043 46.5146 97.3633 56.5219 97.3633 69.5413V97.0714H81.5527V72.6024C81.5527 67.0002 81.4356 59.7891 73.3301 59.7891C65.2246 59.7891 63.8379 65.8818 63.8379 72.2001V97.1204H48.0371V46.5146ZM39.0625 31.1896C39.0625 32.8235 38.5803 34.4206 37.6767 35.7792C36.7732 37.1377 35.489 38.1965 33.9865 38.8217C32.484 39.447 30.8307 39.6106 29.2357 39.2918C27.6406 38.9731 26.1755 38.1863 25.0256 37.031C23.8756 35.8757 23.0925 34.4037 22.7752 32.8012C22.4579 31.1988 22.6207 29.5378 23.2431 28.0283C23.8655 26.5188 24.9194 25.2286 26.2716 24.3209C27.6238 23.4131 29.2136 22.9286 30.8398 22.9286C33.0198 22.9312 35.1098 23.8024 36.6513 25.3511C38.1928 26.8997 39.0599 28.9995 39.0625 31.1896ZM22.6367 46.5146H39.0625V97.0714H22.6367V46.5146Z" fill="white"/>
</svg>
