<svg width="120" height="120" viewBox="0 0 120 120" fill="none" xmlns="http://www.w3.org/2000/svg">
<path fill-rule="evenodd" clip-rule="evenodd" d="M91.4062 0C108.75 0 120 11.25 120 28.5938V91.4062C120 108.75 108.75 120 91.4062 120H28.5938C11.25 120 0 108.75 0 91.4062V28.5938C0 11.25 11.25 0 28.5938 0H91.4062Z" fill="white"/>
<path fill-rule="evenodd" clip-rule="evenodd" d="M91.4062 0C108.75 0 120 11.25 120 28.5938V91.4062C120 108.75 108.75 120 91.4062 120H28.5938C11.25 120 0 108.75 0 91.4062V28.5938C0 11.25 11.25 0 28.5938 0H91.4062Z" fill="url(#paint0_linear_166_1380)"/>
<path d="M36.3468 37.8302L41.8454 83.6522L27.1476 68.9543C24.9683 66.775 24.3836 63.463 25.6886 60.6697L36.3468 37.8302Z" fill="#1565C0"/>
<path d="M68.0913 27.4176C66.5425 25.8688 64.4439 25 62.2554 25C60.8899 25 59.5446 25.3391 58.3422 25.9861L36.3477 37.8302V75.1165C36.3477 77.0611 37.1193 78.9252 38.4958 80.2998L41.8463 83.6522H82.1697V74.4878L94.9998 54.3261L68.0913 27.4176Z" fill="#42A5F5"/>
<path d="M36.3477 37.8302H75.4668C77.4115 37.8302 79.2756 38.6018 80.6502 39.9783L94.9998 54.3261V83.6522H82.1697L36.3477 37.8302Z" fill="#1565C0"/>
<path d="M82.1691 83.6522H41.8457L52.843 94.6495H82.1691V83.6522Z" fill="#85CBF8"/>
<defs>
<linearGradient id="paint0_linear_166_1380" x1="60" y1="0" x2="60" y2="120" gradientUnits="userSpaceOnUse">
<stop offset="0.095" stop-color="white" stop-opacity="0"/>
<stop offset="1" stop-color="#00A6FF" stop-opacity="0.21"/>
</linearGradient>
</defs>
</svg>
