<svg width="120" height="120" viewBox="0 0 120 120" fill="none" xmlns="http://www.w3.org/2000/svg">
<path fill-rule="evenodd" clip-rule="evenodd" d="M91.4062 0C108.75 0 120 11.25 120 28.5938V91.4062C120 108.75 108.75 120 91.4062 120H28.5938C11.25 120 0 108.75 0 91.4062V28.5938C0 11.25 11.25 0 28.5938 0H91.4062Z" fill="white"/>
<path fill-rule="evenodd" clip-rule="evenodd" d="M91.4062 0C108.75 0 120 11.25 120 28.5938V91.4062C120 108.75 108.75 120 91.4062 120H28.5938C11.25 120 0 108.75 0 91.4062V28.5938C0 11.25 11.25 0 28.5938 0H91.4062Z" fill="url(#paint0_linear_166_1402)"/>
<path d="M70.0582 34C68.8195 34 67.8154 35.0041 67.8154 36.2427C67.8154 37.4814 68.8195 38.4855 70.0582 38.4855H80.3428L64.0776 54.7507C63.2017 55.6266 63.2017 57.0466 64.0776 57.9224C64.9534 58.7983 66.3734 58.7983 67.2493 57.9224L83.5145 41.6572V51.9418C83.5145 53.1805 84.5186 54.1846 85.7573 54.1846C86.9959 54.1846 88 53.1805 88 51.9418V36.2427C88 35.0041 86.9959 34 85.7573 34H70.0582Z" fill="#363538"/>
<path d="M52.9418 87C54.1805 87 55.1846 85.9959 55.1846 84.7573C55.1846 83.5186 54.1805 82.5145 52.9418 82.5145H42.6572L58.9224 66.2493C59.7983 65.3734 59.7983 63.9534 58.9224 63.0776C58.0466 62.2017 56.6266 62.2017 55.7507 63.0776L39.4855 79.3428V69.0582C39.4855 67.8195 38.4814 66.8154 37.2427 66.8154C36.0041 66.8154 35 67.8195 35 69.0582V84.7573C35 85.9959 36.0041 87 37.2427 87H52.9418Z" fill="#363538"/>
<defs>
<linearGradient id="paint0_linear_166_1402" x1="60" y1="0" x2="60" y2="120" gradientUnits="userSpaceOnUse">
<stop stop-color="white" stop-opacity="0"/>
<stop offset="1" stop-color="#999999" stop-opacity="0.33"/>
</linearGradient>
</defs>
</svg>
