<svg width="120" height="120" viewBox="0 0 120 120" fill="none" xmlns="http://www.w3.org/2000/svg">
<path fill-rule="evenodd" clip-rule="evenodd" d="M91.4062 0C108.75 0 120 11.25 120 28.5938V91.4062C120 108.75 108.75 120 91.4062 120H28.5938C11.25 120 0 108.75 0 91.4062V28.5938C0 11.25 11.25 0 28.5938 0H91.4062Z" fill="white"/>
<g clip-path="url(#clip0_165_1343)">
<path d="M30 30H58.5116V58.5116H30V30Z" fill="#F25022"/>
<path d="M61.4883 30H89.9999V58.5116H61.4883V30Z" fill="#7FBA00"/>
<path d="M30 61.4884H58.5116V90H30V61.4884Z" fill="#00A4EF"/>
<path d="M61.4883 61.4884H89.9999V90H61.4883V61.4884Z" fill="#FFB900"/>
</g>
<defs>
<clipPath id="clip0_165_1343">
<rect width="60" height="60" fill="white" transform="translate(30 30)"/>
</clipPath>
</defs>
</svg>
