<svg width="120" height="120" viewBox="0 0 120 120" fill="none" xmlns="http://www.w3.org/2000/svg">
<g clip-path="url(#clip0_165_1116)">
<path d="M21.3196 4.76697e-06H98.6921C101.492 -0.00189221 104.265 0.562395 106.853 1.6606C109.44 2.7588 111.791 4.36937 113.771 6.40019C115.752 8.43102 117.322 10.8423 118.393 13.496C119.463 16.1498 120.014 18.994 120.012 21.8661V98.134C120.013 101.007 119.462 103.851 118.39 106.505C117.318 109.159 115.747 111.57 113.766 113.601C111.784 115.631 109.432 117.241 106.844 118.339C104.255 119.436 101.481 119.999 98.6804 119.995H21.3196C9.69969 119.952 0 110.388 0 98.134V21.818C0 9.56355 9.32455 4.76697e-06 21.3196 4.76697e-06Z" fill="#B30B00"/>
<path d="M95.6817 69.3471C90.0593 63.1959 74.7373 65.8891 71.0421 66.2715C65.7949 60.8897 62.0927 54.7866 60.5922 52.4781C62.4679 46.7067 63.9661 40.214 63.9661 34.0724C63.9661 28.3011 61.7176 22.5875 55.7599 22.5875C54.6978 22.5761 53.6519 22.855 52.7296 23.3955C51.8074 23.9361 51.0422 24.7188 50.5126 25.6631C47.889 30.2753 49.0121 39.4565 53.1363 49.0201C50.8784 55.9384 47.1387 66.2715 42.6863 74.3056C36.6888 76.6118 23.6152 82.7221 22.4921 89.6357C22.1169 91.5595 22.8672 93.8632 24.3678 95.0174C25.8683 96.5565 27.7417 96.9412 29.615 96.9412C37.4414 96.9412 45.324 85.8411 50.937 75.8447C55.434 74.308 62.5101 71.9971 69.633 70.8477C77.8392 78.5427 85.3279 79.6417 89.077 79.6417C94.3266 79.6417 96.1999 77.3356 96.9033 75.4118C97.8833 73.5842 97.1823 70.8861 95.6817 69.3471ZM90.4345 73.1947C90.0593 74.7313 88.186 76.2703 84.8074 75.5008C80.6832 74.3489 76.9811 72.4252 73.9823 69.7295C76.6059 69.3447 82.9317 68.5752 87.431 69.3447C88.9339 69.7367 90.8096 70.8861 90.4345 73.1923V73.1947ZM54.1609 27.1997C54.3365 26.8464 54.6056 26.551 54.9373 26.3473C55.269 26.1436 55.65 26.0398 56.0366 26.0479C57.9123 26.0479 58.2851 28.354 58.2851 30.2753C57.9099 34.89 57.162 39.8389 55.6614 44.0688C52.6673 35.6595 53.0425 29.5082 54.1609 27.1997ZM53.7857 70.5014C55.6614 67.041 57.9076 60.5531 58.6578 58.2373C60.5335 61.6977 63.9051 65.5405 65.4057 67.4161C65.7878 67.0915 59.04 68.5776 53.7928 70.5014H53.7857ZM41.0943 79.3555C35.8916 87.772 31.0124 93.149 28.0207 93.149C27.6456 93.149 26.8953 93.149 26.5201 92.7642C26.1473 91.9947 25.7722 91.2252 26.1473 90.4581C26.5201 87.3705 32.52 83.1406 41.0943 79.3555Z" fill="white"/>
</g>
<defs>
<clipPath id="clip0_165_1116">
<rect width="120" height="120" fill="white"/>
</clipPath>
</defs>
</svg>
