<svg width="120" height="120" viewBox="0 0 120 120" fill="none" xmlns="http://www.w3.org/2000/svg">
<g clip-path="url(#clip0_165_1249)">
<path d="M26.0001 5.18521e-05H94.0001C97.4163 -0.00677354 100.8 0.661078 103.958 1.96528C107.115 3.26949 109.984 5.18437 112.4 7.60005C114.816 10.0157 116.731 12.8847 118.035 16.0422C119.339 19.1998 120.007 22.5838 120 26.0001V94.0001C120.007 97.4163 119.339 100.8 118.035 103.958C116.731 107.115 114.816 109.984 112.4 112.4C109.984 114.816 107.115 116.731 103.958 118.035C100.8 119.339 97.4163 120.007 94.0001 120H26.0001C22.5838 120.007 19.1998 119.339 16.0422 118.035C12.8847 116.731 10.0157 114.816 7.60005 112.4C5.18437 109.984 3.26949 107.115 1.96528 103.958C0.661078 100.8 -0.00677354 97.4163 5.18521e-05 94.0001V26.0001C-0.00677751 22.5838 0.661071 19.1998 1.96527 16.0422C3.26948 12.8847 5.18436 10.0157 7.60005 7.60005C10.0157 5.18436 12.8847 3.26948 16.0422 1.96527C19.1998 0.661071 22.5838 -0.00677751 26.0001 5.18521e-05Z" fill="url(#paint0_linear_165_1249)"/>
<path d="M60 112C88.7188 112 112 88.7188 112 60C112 31.2812 88.7188 8 60 8C31.2812 8 8 31.2812 8 60C8 88.7188 31.2812 112 60 112Z" fill="#2E2E2F"/>
<path fill-rule="evenodd" clip-rule="evenodd" d="M59.0008 32H60.7008L61.5008 28H62.2008L62.5008 32.1C63.0061 32.1174 63.5085 32.1844 64.0008 32.3L65.2008 28.4L65.9008 28.5L65.7008 32.6C66.2121 32.6864 66.7143 32.8203 67.2008 33L68.8008 29.3L69.4008 29.5L68.7008 33.5C69.2008 33.7 69.7008 33.8 70.2008 34L72.2008 30.5L72.8008 30.8L71.7008 34.7C72.2008 34.9 72.6008 35.2 73.1008 35.4L75.5008 32.1L76.1008 32.4L74.5008 36.2C74.9008 36.5 75.4008 36.8 75.8008 37.1L78.6008 34.1L79.1008 34.5L77.1008 38.1C77.5008 38.4 77.9008 38.8 78.3008 39.1L81.4008 36.5L81.9008 37L79.5008 40.3L80.6008 41.4L84.0008 39.2L84.4008 39.7L81.7008 42.7L82.6008 43.9L86.2008 42.1L86.6008 42.7L83.5008 45.4C83.8008 45.8 84.0008 46.3 84.3008 46.7L88.1008 45.3L88.4008 45.9L85.0008 48.2L85.6008 49.7L89.5008 48.8L89.7008 49.4L86.2008 51.2C86.4008 51.7 86.5008 52.2 86.7008 52.7L90.7008 52.2L90.9008 52.9L87.1008 54.3C87.2008 54.8 87.3008 55.3 87.4008 55.9H91.5008L91.6008 56.6L87.7008 57.6C87.7008 58.1 87.8008 58.7 87.8008 59.2L91.8008 59.7V60.4L87.8008 60.9C87.8173 61.4021 87.7838 61.9046 87.7008 62.4L91.6008 63.3L91.5008 64L87.5008 64.1L87.2008 65.6L91.0008 67L90.9008 67.6L86.9008 67.2C86.8008 67.7 86.6008 68.2 86.5008 68.7L90.1008 70.5L89.9008 71.1L85.9008 70.2L85.3008 71.7L88.7008 74L88.4008 74.6L84.5008 73.3C84.3008 73.7 84.0008 74.2 83.8008 74.6L86.9008 77.2L86.5008 77.8L82.9008 76C82.5993 76.4569 82.2651 76.8914 81.9008 77.3L84.7008 80.2L84.3008 80.7L80.9008 78.5C80.5858 78.915 80.2157 79.285 79.8008 79.6L82.2008 82.9L81.7008 83.4L78.5008 80.8C78.1259 81.1624 77.7249 81.4967 77.3008 81.8L79.3008 85.3L78.8008 85.7L76.0008 82.8C75.6008 83.1 75.1008 83.4 74.7008 83.7L76.3008 87.5L75.7008 87.8L73.2008 84.6C72.755 84.8729 72.2866 85.1071 71.8008 85.3L73.0008 89.2L72.4008 89.5L70.3008 86C69.8168 86.2113 69.3148 86.3787 68.8008 86.5L69.5008 90.5L68.9008 90.7L67.2008 87C66.7008 87.1 66.2008 87.3 65.7008 87.4L65.9008 91.5L65.2008 91.6L64.0008 87.7C63.5008 87.8 63.0008 87.8 62.4008 87.9L62.2008 92H61.5008L60.7008 88H59.0008L58.3008 92H57.9008L57.6008 87.9C57.0629 87.8766 56.5278 87.8097 56.0008 87.7L54.8008 91.6L54.1008 91.5L54.3008 87.4C53.7894 87.3136 53.2872 87.1797 52.8008 87L51.2008 90.7L50.6008 90.5L51.3008 86.5C50.8008 86.3 50.3008 86.2 49.8008 86L47.7008 89.5L47.1008 89.2L48.2008 85.3C47.7008 85.1 47.3008 84.8 46.8008 84.6L44.4008 87.9L43.8008 87.6L45.4008 83.8C45.0008 83.5 44.5008 83.2 44.1008 82.9L41.3008 85.9L40.8008 85.5L42.8008 81.9C42.4008 81.6 42.0008 81.2 41.6008 80.9L38.5008 83.5L38.0008 83L40.4008 79.7C40.0596 79.3087 39.6921 78.9412 39.3008 78.6L35.9008 80.9L35.5008 80.4L38.3008 77.4C37.9435 76.9856 37.6097 76.5516 37.3008 76.1L33.7008 77.9L33.3008 77.3L36.4008 74.7C36.1008 74.3 35.9008 73.8 35.6008 73.3L31.8008 74.7L31.5008 74.1L34.9008 71.8L34.3008 70.3L30.4008 71.2L30.2008 70.6L33.8008 68.7C33.6008 68.2 33.5008 67.7 33.3008 67.2L29.3008 67.7L29.1008 67L32.9008 65.6C32.8008 65.1 32.7008 64.6 32.6008 64H28.6008L28.5008 63.3L32.4008 62.3C32.4008 61.8 32.3008 61.3 32.3008 60.7L28.3008 60.2V59.5L32.3008 59C32.2842 58.4647 32.3177 57.9291 32.4008 57.4L28.5008 56.5L28.6008 55.8L32.6008 55.7L32.9008 54.2L29.1008 52.8L29.3008 52.2L33.3008 52.6C33.4008 52.1 33.6008 51.6 33.7008 51.1L30.1008 49.3L30.3008 48.7L34.2008 49.6L34.8008 48.1L31.4008 45.9L31.7008 45.3L35.5008 46.6C35.8008 46.1 36.0008 45.7 36.3008 45.2L33.2008 42.6L33.6008 42L37.2008 43.8C37.5008 43.4 37.8008 42.9 38.1008 42.5L35.3008 39.5L35.7008 39L39.1008 41.2C39.4398 40.7755 39.8073 40.3746 40.2008 40L37.8008 36.7L38.3008 36.2L41.4008 38.8C41.7756 38.4376 42.1767 38.1033 42.6008 37.8L40.6008 34.3L41.1008 33.9L43.9008 36.8C44.3008 36.5 44.8008 36.2 45.2008 35.9L43.6008 32.2L44.2008 31.9L46.7008 35.1C47.1466 34.8271 47.615 34.5929 48.1008 34.4L47.0008 30.5L47.6008 30.2L49.7008 33.7C50.1848 33.4887 50.6868 33.3213 51.2008 33.2L50.5008 29.2L51.1008 29L52.8008 32.7C53.3008 32.6 53.8008 32.4 54.3008 32.3L54.1008 28.2L54.8008 28.1L56.0008 32C56.5008 31.9 57.0008 31.9 57.6008 31.8L57.8008 27.7H58.5008L59.0008 32ZM60.0008 37.4C55.5507 37.4 51.2006 38.7196 47.5005 41.1919C43.8003 43.6643 40.9165 47.1783 39.2135 51.2896C37.5105 55.401 37.0649 59.925 37.9331 64.2895C38.8013 68.6541 40.9442 72.6632 44.0909 75.8099C47.2376 78.9566 51.2467 81.0995 55.6112 81.9677C59.9758 82.8358 64.4998 82.3903 68.6112 80.6873C72.7225 78.9843 76.2365 76.1004 78.7089 72.4003C81.1812 68.7002 82.5008 64.3501 82.5008 59.9C82.4918 53.9354 80.1184 48.2176 75.9008 44C71.6832 39.7824 65.9654 37.409 60.0008 37.4Z" fill="url(#paint1_linear_165_1249)"/>
<path fill-rule="evenodd" clip-rule="evenodd" d="M58.5008 18H60.9008L62.0008 12H63.0008L63.4008 18.1C64.2008 18.2 65.0008 18.3 65.7008 18.4L67.5008 12.5L68.5008 12.7L68.2008 18.9C69.0008 19.1 69.7008 19.2 70.4008 19.4L72.9008 13.7L73.9008 14L72.9008 20.2C73.6167 20.4227 74.3181 20.6899 75.0008 21L78.2008 15.5L79.1008 15.9L77.4008 22C78.1008 22.3 78.8008 22.7 79.4008 23L83.2008 17.9L84.1008 18.4L81.6008 24.3C82.257 24.6989 82.8912 25.1329 83.5008 25.6L87.9008 20.9L88.7008 21.5L85.5008 27.1C86.1008 27.6 86.7008 28.1 87.2008 28.6L92.1008 24.5L92.8008 25.2L89.0008 30.4C89.5008 30.9 90.0008 31.5 90.5008 32L95.9008 28.5L96.5008 29.3L92.1008 34.1C92.5667 34.6758 93.0006 35.2767 93.4008 35.9L99.2008 33L99.8008 33.8L94.9008 38.1C95.3046 38.7111 95.6719 39.3455 96.0008 40L102.201 37.8L102.701 38.7L97.3008 42.4C97.6008 43.1 97.9008 43.7 98.2008 44.4L104.601 42.9L104.901 43.8L99.1008 46.8L99.7008 48.9L106.201 48.2L106.401 49.2L100.301 51.5C100.401 52.2 100.601 52.9 100.701 53.6H107.301L107.401 54.6L101.001 56.2C101.086 56.9635 101.12 57.732 101.101 58.5L107.601 59.3V60.3L101.101 61.1C101.101 61.8 101.001 62.5 101.001 63.2L107.401 64.7L107.301 65.7L100.701 65.8C100.616 66.5413 100.482 67.2763 100.301 68L106.401 70.3L106.201 71.3L99.7008 70.6L99.1008 72.7L104.901 75.6L104.601 76.5L98.3008 75.1C98.0008 75.8 97.7008 76.5 97.4008 77.2L102.801 80.8L102.401 81.7L96.3008 79.6C95.9941 80.2662 95.6258 80.9023 95.2008 81.5L100.101 85.7L99.6008 86.5L93.8008 83.7C93.4008 84.3 92.9008 84.9 92.5008 85.5L96.9008 90.2L96.3008 91L90.9008 87.5C90.4008 88.1 89.9008 88.6 89.4008 89.2L93.2008 94.3L92.5008 95L87.6008 91C87.0008 91.5 86.5008 92 85.9008 92.5L89.0008 98L88.2008 98.6L83.8008 94.1C83.2008 94.5 82.6008 95 81.9008 95.4L84.4008 101.1L83.5008 101.6L79.7008 96.7C79.0008 97.1 78.3008 97.4 77.6008 97.8L79.4008 103.8L78.5008 104.2L75.3008 98.9C74.6181 99.2101 73.9167 99.4773 73.2008 99.7L74.3008 105.8L73.3008 106.1L70.8008 100.5C70.1008 100.7 69.3008 100.9 68.5008 101.1L68.8008 107.1L67.8008 107.3L66.0008 101.6L63.6008 101.9L63.2008 107.9L62.2008 108L61.1008 102.1H58.5008L57.4008 108L56.4008 107.9L56.0008 101.9C55.2008 101.8 54.4008 101.8 53.6008 101.7L51.9008 107.4L50.9008 107.2L51.2008 101.3C50.4008 101.1 49.6008 101 48.8008 100.8L46.4008 106.2L45.4008 105.9L46.3008 100.1C45.5192 99.8782 44.7513 99.6111 44.0008 99.3L41.1008 104.3L40.2008 103.9L41.8008 98.3C41.0387 97.994 40.3029 97.6261 39.6008 97.2L36.1008 101.8L35.2008 101.3L37.4008 96C36.7008 95.6 36.0008 95.1 35.3008 94.7L31.4008 98.9L30.6008 98.3L33.4008 93.3C32.7008 92.8 32.1008 92.3 31.4008 91.7L27.0008 95.3L26.3008 94.6L29.6008 90L27.8008 88.2L23.1008 91.3L22.4008 90.5L26.2008 86.3C25.7008 85.6 25.2008 85 24.7008 84.3L19.7008 86.8L19.1008 86L23.3008 82.3C22.8307 81.589 22.3968 80.8548 22.0008 80.1L16.7008 82L16.3008 81.1L20.9008 78C20.5251 77.2183 20.1913 76.4172 19.9008 75.6L14.5008 76.8L14.2008 75.9L19.1008 73.4C18.8008 72.6 18.6008 71.8 18.3008 70.9L12.8008 71.5L12.6008 70.5L17.8008 68.6C17.6008 67.8 17.5008 66.9 17.3008 66.1H11.7008L11.6008 65.1L17.0008 63.7C16.9008 62.9 16.9008 62 16.8008 61.2L11.3008 60.5V59.5L16.8008 58.8C16.8008 57.9 16.9008 57.1 16.9008 56.2L11.5008 54.9L11.6008 53.9L17.2008 53.8C17.3008 53 17.5008 52.1 17.6008 51.3L12.4008 49.4L12.6008 48.4L18.1008 49C18.3008 48.2 18.6008 47.4 18.8008 46.5L13.8008 44L14.2008 43.1L19.6008 44.3C19.9008 43.5 20.3008 42.7 20.6008 42L15.9008 38.9L16.3008 38L21.6008 39.9C21.9968 39.1452 22.4307 38.411 22.9008 37.7L18.6008 34.1L19.1008 33.3L24.2008 35.8C24.7008 35.1 25.2008 34.4 25.7008 33.8L21.8008 29.6L22.4008 28.8L27.2008 31.9C27.8008 31.3 28.3008 30.7 28.9008 30.1L25.5008 25.5L26.2008 24.8L30.7008 28.4C31.3008 27.9 32.0008 27.3 32.6008 26.8L29.7008 21.8L30.5008 21.2L34.5008 25.4C35.2008 24.9 35.9008 24.5 36.6008 24L34.3008 18.6L35.2008 18.1L38.8008 22.7C39.5008 22.3 40.3008 22 41.0008 21.6L39.3008 16L40.2008 15.6L43.2008 20.7C43.9513 20.3889 44.7192 20.1218 45.5008 19.9L44.5008 14L45.5008 13.7L47.9008 19.1C48.6563 18.8858 49.4245 18.7188 50.2008 18.6L49.9008 12.6L50.9008 12.4L52.7008 18.1L55.1008 17.8L55.5008 11.8L56.5008 11.7L58.5008 18ZM34.1008 86.8C36.8008 89.4 41.2008 88.3 43.1008 85L53.9008 66C54.9264 64.1591 55.448 62.0801 55.4129 59.9731C55.3777 57.8661 54.7872 55.8057 53.7008 54L42.6008 35.2C40.7008 32 36.3008 30.9 33.6008 33.6C30.045 37.0728 27.2286 41.2291 25.321 45.8188C23.4134 50.4084 22.4541 55.3366 22.5008 60.3067C22.5475 65.2768 23.5993 70.186 25.5928 74.739C27.5863 79.292 30.4804 83.3947 34.1008 86.8ZM57.1008 51.9C58.2037 53.7262 59.7583 55.2375 61.6149 56.2884C63.4715 57.3393 65.5674 57.8943 67.7008 57.9H89.5008C93.3008 57.9 96.4008 54.7 95.5008 51C94.2842 46.139 92.0944 41.5752 89.0639 37.5845C86.0334 33.5938 82.2251 30.2591 77.8692 27.7821C73.5134 25.305 68.7004 23.737 63.7213 23.1729C58.7422 22.6088 53.7004 23.0602 48.9008 24.5C45.3008 25.6 44.0008 29.9 45.9008 33.2L57.1008 51.9ZM67.8008 62C65.6812 62.0068 63.5996 62.5632 61.7592 63.6148C59.9189 64.6664 58.3827 66.1773 57.3008 68L46.5008 87C46.0273 87.751 45.7335 88.6011 45.6421 89.4841C45.5507 90.3672 45.6642 91.2594 45.9738 92.0914C46.2834 92.9235 46.7807 93.6729 47.4271 94.2814C48.0735 94.8899 48.8516 95.3412 49.7008 95.6C54.4753 96.9258 59.4671 97.2809 64.3812 96.6443C69.2952 96.0078 74.0318 94.3926 78.3109 91.8941C82.5901 89.3956 86.3248 86.0646 89.2945 82.0979C92.2642 78.1313 94.4086 73.6096 95.6008 68.8C96.5008 65.2 93.4008 61.9 89.6008 61.9L67.8008 62ZM59.5008 58C59.1052 58 58.7185 58.1173 58.3896 58.3371C58.0607 58.5568 57.8044 58.8692 57.653 59.2346C57.5016 59.6001 57.462 60.0022 57.5392 60.3902C57.6164 60.7781 57.8069 61.1345 58.0866 61.4142C58.3663 61.6939 58.7226 61.8844 59.1106 61.9616C59.4986 62.0387 59.9007 61.9991 60.2661 61.8478C60.6316 61.6964 60.944 61.44 61.1637 61.1111C61.3835 60.7822 61.5008 60.3956 61.5008 60C61.4992 59.47 61.288 58.9622 60.9133 58.5875C60.5385 58.2128 60.0307 58.0015 59.5008 58Z" fill="url(#paint2_linear_165_1249)"/>
</g>
<defs>
<linearGradient id="paint0_linear_165_1249" x1="60.0001" y1="120" x2="60.0001" y2="5.72205e-05" gradientUnits="userSpaceOnUse">
<stop stop-color="#8E8E93"/>
<stop offset="1" stop-color="#E5E5EA"/>
</linearGradient>
<linearGradient id="paint1_linear_165_1249" x1="60.0617" y1="27.964" x2="60.0617" y2="91.964" gradientUnits="userSpaceOnUse">
<stop stop-color="#B4B4B9"/>
<stop offset="1" stop-color="#B4B4B9"/>
</linearGradient>
<linearGradient id="paint2_linear_165_1249" x1="59.4668" y1="11.9567" x2="59.4668" y2="107.867" gradientUnits="userSpaceOnUse">
<stop stop-color="#DCDCE1"/>
<stop offset="1" stop-color="#98989D"/>
</linearGradient>
<clipPath id="clip0_165_1249">
<rect width="120" height="120" fill="white"/>
</clipPath>
</defs>
</svg>
