<svg width="120" height="120" viewBox="0 0 120 120" fill="none" xmlns="http://www.w3.org/2000/svg">
<g clip-path="url(#clip0_165_1147)">
<path fill-rule="evenodd" clip-rule="evenodd" d="M94.0001 120H26.0001C22.5838 120.007 19.1998 119.339 16.0422 118.035C12.8847 116.731 10.0157 114.816 7.60005 112.4C5.18437 109.984 3.26948 107.115 1.96528 103.958C0.661075 100.8 -0.0067749 97.4163 5.1812e-05 94V26C-0.0067749 22.5837 0.661075 19.1997 1.96528 16.0422C3.26948 12.8846 5.18437 10.0157 7.60005 7.6C10.0157 5.18432 12.8847 3.26943 16.0422 1.96523C19.1998 0.661024 22.5838 -0.0068264 26.0001 3.13576e-07H94.0001C97.4163 -0.0068264 100.8 0.661024 103.958 1.96523C107.115 3.26943 109.984 5.18432 112.4 7.6C114.816 10.0157 116.731 12.8846 118.035 16.0422C119.339 19.1997 120.007 22.5837 120 26V94C120.007 97.4163 119.339 100.8 118.035 103.958C116.731 107.115 114.816 109.984 112.4 112.4C109.984 114.816 107.115 116.731 103.958 118.035C100.8 119.339 97.4163 120.007 94.0001 120Z" fill="#D8D6CC"/>
<path fill-rule="evenodd" clip-rule="evenodd" d="M119.998 92.8746V93.9946C120.007 97.5243 119.295 101.019 117.906 104.263C116.517 107.508 114.479 110.435 111.918 112.864C110.693 114.035 109.353 115.081 107.918 115.984V92.8746H119.998Z" fill="#4CD964"/>
<path d="M120 62.873H107.914V92.873H120V62.873Z" fill="#FF9500"/>
<path d="M120 32.873H107.914V62.873H120V32.873Z" fill="#5AC8FA"/>
<path d="M120 32.873H107.914V42.873H120V32.873Z" fill="url(#paint0_linear_165_1147)"/>
<path d="M120 62.874H107.914V72.874H120V62.874Z" fill="url(#paint1_linear_165_1147)"/>
<path fill-rule="evenodd" clip-rule="evenodd" d="M107.914 92.8746V100.875H119.058C119.676 98.6352 119.993 96.3233 120 94V92.8746H107.914Z" fill="url(#paint2_linear_165_1147)"/>
<path fill-rule="evenodd" clip-rule="evenodd" d="M120 26C120.007 21.6165 118.902 17.3028 116.788 13.4624C114.674 9.62213 111.621 6.38069 107.914 4.04135V32.8733H120L120 26Z" fill="#C4C2BA"/>
<path d="M56.184 99.9975C63.6062 100.005 70.8639 97.8111 77.0389 93.693C83.2139 89.575 88.0288 83.7179 90.8744 76.8629C93.72 70.0078 94.4684 62.4627 93.0251 55.1822C91.5817 47.9017 88.0114 41.2129 82.7657 35.9619C77.5201 30.711 70.8349 27.1338 63.5559 25.683C56.2768 24.2323 48.731 24.9731 41.8731 27.8117C35.0151 30.6503 29.1532 35.4592 25.0288 41.63C20.9045 47.8009 18.7031 55.0563 18.7031 62.4785C18.7393 72.4115 22.6986 81.9278 29.7187 88.955C36.7388 95.9823 46.2511 99.9512 56.184 99.9975ZM56.184 75.0231C43.4099 75.0231 33.8867 80.9511 30.8653 86.0379C26.2781 81.1037 23.2313 74.9375 22.0992 68.2962C20.967 61.6549 21.7987 54.8275 24.4921 48.6522C27.1855 42.4769 31.6235 37.2224 37.2611 33.5338C42.8988 29.8452 49.4908 27.883 56.2279 27.8881C62.965 27.8932 69.5541 29.8653 75.1862 33.5624C80.8182 37.2595 85.2482 42.5207 87.9323 48.7001C90.6164 54.8794 91.4378 61.7081 90.2956 68.3477C89.1534 74.9873 86.0974 81.1489 81.5027 86.0761C78.4813 80.9511 68.9963 75.0231 56.184 75.0231ZM56.184 68.4066C63.5272 68.4066 69.1493 62.1725 69.1493 54.0261C69.1493 46.377 63.4124 39.9517 56.184 39.9517C48.9938 39.9517 43.2186 46.377 43.2569 54.0261C43.2569 62.1725 48.879 68.3683 56.184 68.4066Z" fill="#A9A29A"/>
<path fill-rule="evenodd" clip-rule="evenodd" d="M107.918 115.956C110.174 114.532 112.198 112.769 113.918 110.729V9.27087C112.198 7.23074 110.174 5.46764 107.918 4.04358V115.956Z" fill="url(#paint3_linear_165_1147)"/>
</g>
<defs>
<linearGradient id="paint0_linear_165_1147" x1="113.957" y1="32.807" x2="113.957" y2="42.245" gradientUnits="userSpaceOnUse">
<stop stop-opacity="0.3"/>
<stop offset="1" stop-color="white" stop-opacity="0"/>
</linearGradient>
<linearGradient id="paint1_linear_165_1147" x1="113.957" y1="62.639" x2="113.957" y2="72.831" gradientUnits="userSpaceOnUse">
<stop stop-opacity="0.2"/>
<stop offset="1" stop-color="white" stop-opacity="0"/>
</linearGradient>
<linearGradient id="paint2_linear_165_1147" x1="113.957" y1="92.875" x2="113.957" y2="100.46" gradientUnits="userSpaceOnUse">
<stop stop-opacity="0.2"/>
<stop offset="1" stop-color="white" stop-opacity="0"/>
</linearGradient>
<linearGradient id="paint3_linear_165_1147" x1="107.918" y1="60" x2="113.918" y2="60" gradientUnits="userSpaceOnUse">
<stop stop-opacity="0.2"/>
<stop offset="1" stop-color="white" stop-opacity="0"/>
</linearGradient>
<clipPath id="clip0_165_1147">
<rect width="120" height="120" fill="white"/>
</clipPath>
</defs>
</svg>
