<svg width="120" height="120" viewBox="0 0 120 120" fill="none" xmlns="http://www.w3.org/2000/svg">
<path fill-rule="evenodd" clip-rule="evenodd" d="M91.4062 0C108.75 0 120 11.25 120 28.5938V91.4062C120 108.75 108.75 120 91.4062 120H28.5938C11.25 120 0 108.75 0 91.4062V28.5938C0 11.25 11.25 0 28.5938 0H91.4062Z" fill="url(#paint0_radial_165_1217)"/>
<mask id="mask0_165_1217" style="mask-type:alpha" maskUnits="userSpaceOnUse" x="0" y="0" width="120" height="120">
<path fill-rule="evenodd" clip-rule="evenodd" d="M91.4062 0C108.75 0 120 11.25 120 28.5938V91.4062C120 108.75 108.75 120 91.4062 120H28.5938C11.25 120 0 108.75 0 91.4062V28.5938C0 11.25 11.25 0 28.5938 0H91.4062Z" fill="white"/>
</mask>
<g mask="url(#mask0_165_1217)">
<path fill-rule="evenodd" clip-rule="evenodd" d="M25 34.9999H27V121H25V34.9999ZM0 23.9999H10V121H0V23.9999ZM10 26.9999H16V121H10V26.9999ZM16 29.9999H21V121H16V29.9999ZM21 32.9999H25V121H21V32.9999ZM27 37.9999H33V121H27V37.9999ZM33 34.9999H36V121H33V34.9999ZM36 31.9999H41V121H36V31.9999ZM41 28.9999H47V121H41V28.9999ZM47 26.9999H64V121H47V26.9999ZM64 28.9999H69V121H64V28.9999ZM69 26.9999H72V121H69V26.9999ZM72 23.9999H78V121H72V23.9999ZM78 20.9999H83V121H78V20.9999ZM83 17.9999H100V121H83V17.9999ZM100 20.9999H109V121H100V20.9999ZM109 23.9999H114V121H109V23.9999ZM114 26.9999H120V121H114V26.9999Z" fill="url(#paint1_linear_165_1217)"/>
<path fill-rule="evenodd" clip-rule="evenodd" d="M-0.998047 68.9999H2.00195V113H-0.998047V68.9999ZM2.00195 65.9999H5.00195V113H2.00195V65.9999ZM5.00195 63.9999H11.002V113H5.00195V63.9999ZM95.002 90.9999H98.002V113H95.002V90.9999ZM98.002 68.9999H100.002V113H98.002V68.9999ZM100.002 65.9999H104.002V113H100.002V65.9999ZM104.002 62.9999H110.002V113H104.002V62.9999ZM110.002 59.9999H122.002V113H110.002V59.9999ZM11.002 59.9999H95.002V113H11.002V59.9999Z" fill="#448646" fill-opacity="0.05"/>
<path opacity="0.7" fill-rule="evenodd" clip-rule="evenodd" d="M10.002 74.9999H38.002V89.0445H29.9982L29.8977 107H10.002V74.9999ZM13.002 77.9999V104H26.9144L26.9982 89.0277L27.015 86.0445H35.002V77.9999H13.002Z" fill="#3CAB51"/>
<path opacity="0.7" fill-rule="evenodd" clip-rule="evenodd" d="M19 65.9999H38V77.9999H19V65.9999ZM22 68.9999V74.9999H35V68.9999H22Z" fill="#3CAB51"/>
<path opacity="0.7" fill-rule="evenodd" clip-rule="evenodd" d="M27 86H44V118H27V86ZM30 89V115H41V89H30Z" fill="#3CAB51"/>
<path opacity="0.7" fill-rule="evenodd" clip-rule="evenodd" d="M41.002 76.9999H66.002V118H41.002V76.9999ZM44.002 79.9999V115H63.002V79.9999H44.002Z" fill="#3CAB51"/>
<path opacity="0.7" fill-rule="evenodd" clip-rule="evenodd" d="M63.002 76.9999H86.002V118H63.002V76.9999ZM66.002 79.9999V115H83.002V79.9999H66.002Z" fill="#3CAB51"/>
<path opacity="0.7" fill-rule="evenodd" clip-rule="evenodd" d="M109 74.9999H132V118H109V74.9999ZM112 77.9999V115H129V77.9999H112Z" fill="#3CAB51"/>
<path opacity="0.7" fill-rule="evenodd" clip-rule="evenodd" d="M117 65.9999H132V77.9999H117V65.9999ZM120 68.9999V74.9999H129V68.9999H120Z" fill="#3CAB51"/>
<path opacity="0.8" fill-rule="evenodd" clip-rule="evenodd" d="M13 79.9999H16V85.9999H13V79.9999ZM19 79.9999H22V85.9999H19V79.9999ZM33 91.9999H36V97.9999H33V91.9999ZM39 91.9999H41V97.9999H39V91.9999ZM25 79.9999H28V85.9999H25V79.9999ZM13 87.9999H16V93.9999H13V87.9999ZM19 87.9999H22V93.9999H19V87.9999ZM25 87.9999H27V93.9999H25V87.9999ZM13 95.9999H16V102H13V95.9999ZM19 95.9999H22V102H19V95.9999ZM25 95.9999H27V102H25V95.9999ZM46 84.9999H49V90.9999H46V84.9999ZM52 84.9999H55V90.9999H52V84.9999ZM58 84.9999H61V90.9999H58V84.9999ZM46 92.9999H49V98.9999H46V92.9999ZM52 92.9999H55V98.9999H52V92.9999ZM58 92.9999H61V98.9999H58V92.9999ZM46 101H49V107H46V101ZM52 101H55V107H52V101ZM58 101H61V107H58V101ZM72 80.9999H75V86.9999H72V80.9999ZM78 80.9999H81V86.9999H78V80.9999ZM72 88.9999H75V94.9999H72V88.9999ZM78 88.9999H81V94.9999H78V88.9999ZM72 96.9999H75V103H72V96.9999ZM78 96.9999H81V103H78V96.9999ZM112 80.9999H115V86.9999H112V80.9999ZM118 80.9999H121V86.9999H118V80.9999ZM112 88.9999H115V94.9999H112V88.9999ZM118 88.9999H121V94.9999H118V88.9999ZM112 96.9999H115V103H112V96.9999ZM118 96.9999H121V103H118V96.9999Z" fill="#42AD4D" fill-opacity="0.630491"/>
<path fill-rule="evenodd" clip-rule="evenodd" d="M111.082 120.358H105.082H96.6823V120.338H86.0012V120.343H80.6158V120.262H77.8085H74.4952V120.289H65.5226V120.294H59.0226H54.7644V120.327H42.9644V120.307H32.2577V120.327H20.9644V120.323H11.104H5.75005H-1V102.323H4.5001V99.6497H9.70786V97.0163H21.0012V99.6535H32.0012V96.9998H43.5012V99.6535H54.7644V105H57.5226V102.294H65.5226V104.995H74.4952V107.633H77.6158V104.967H80.6158V102.343H85.5172V99.6642H92.0012V96.9998H102.501V99.6842H108.482V102.358H113.482V105.063H120.482V120.358H111.082Z" fill="#37B640"/>
<path fill-rule="evenodd" clip-rule="evenodd" d="M91.5085 112.966H86.0779V115.63H91.5982V113.322H102.51V110.658H91.5085V112.966ZM102.51 99.6574H108.509V102.322H102.509V99.6639H91.5085V96.9998H102.51V99.6574ZM32.2464 99.6639V102.316H20.9464V99.6639H9.70848V102.322H4.50848V99.6574H9.68695V96.9998H20.987V99.652H32.2097V96.9998H43.5097V99.6574H54.8085V102.322H43.5085V99.6639H32.2464ZM80.5995 104.969H77.6217V107.633H80.6217V104.986H85.5085V102.322H80.5995V104.969ZM60.5995 104.986V107.641H46.9883V104.977H49.5995V102.322H54.7995V104.977H57.5085V102.322H65.5085V104.986H60.5995ZM32.1941 104.986V113.977H35.5041V112.966H43.4931V110.32H47.029V107.656H41.5088V110.302H35.5041V104.977H32.202V102.322H27.002V104.986H32.1941ZM80.602 110.304H86.0691V112.968H80.5489V110.308H74.502V107.644H80.602V110.304ZM105.509 113.327H102.503V115.991H106.766H108.023V110.658H105.509V113.327ZM7.00195 104.977V102.322H-0.998047V104.986H6.98828V107.641H12.5085V104.977H7.00195ZM12.5088 107.656H18.029V110.32H12.5088V107.656ZM21.3622 116.656H26.8824V119.32H21.3622V116.656ZM80.5085 115.643H86.0287V118.307H80.5085V115.643ZM26.8926 113.992H32.1926V116.656H26.8926V113.992ZM43.5085 112.979H49.1926V115.643H43.5085V112.979ZM49.2026 115.651H54.8867V118.315H49.2026V115.651ZM108.402 107.644H113.602V110.308H108.402V107.644ZM65.5085 104.977H74.5085V107.641H65.5085V104.977ZM113.622 104.969H120.509V107.633H113.622V104.969ZM18.0448 110.317H21.3592V116.658H18.0448V110.317ZM108.6 102.322H113.509V104.986H108.6V102.322ZM85.5085 99.6574H91.5085V102.322H85.5085V99.6574Z" fill="#35AA3F"/>
<g filter="url(#filter0_d_165_1217)">
<path fill-rule="evenodd" clip-rule="evenodd" d="M34.9492 74.0375V78.4435H43.9996V83.0005H66.6132V78.5762H62.1681L62.1011 73.6472H57.5662V69.4612H44.1515V74.0375H34.9492Z" fill="#FBBB11"/>
<path fill-rule="evenodd" clip-rule="evenodd" d="M62 69.3469H66.0035L66.1612 64.6474H93.7965L93.6228 69.4955L93.6985 78.6439H66.4691V73.6708H62V69.3469Z" fill="#FD684A"/>
<path fill-rule="evenodd" clip-rule="evenodd" d="M25.6934 51.2017L39.6471 51.1374L39.5717 42.2459H48.2149V37.6279H76.0389V42.2459H80.2795L80.4596 46.6956H85.0106V64.647H25.6934V51.2017Z" fill="white"/>
<path fill-rule="evenodd" clip-rule="evenodd" d="M61.8457 46.7845H66.5993V56.008H71.3271V60.7239H61.8457V46.7845Z" fill="#F5F1F0"/>
<path fill-rule="evenodd" clip-rule="evenodd" d="M44.1613 46.648H48.2577V42.2605H57.5967L57.7433 55.9542H62.2818L62.4305 60.5606H66.4992V64.6471H63.0943V69.5011L29.9074 69.4295V64.6471H25.7461V60.1765H29.9794V64.6471H44.1613V60.1765H48.7414V55.8215H44.1613V46.648Z" fill="#F9F025"/>
<path fill-rule="evenodd" clip-rule="evenodd" d="M66.5254 73.647H89.0477V78.6329H93.7511V73.6335V69.4868H98.9609V64.6476H93.5226L93.5249 69.4868H66.5254V64.647H93.5249V60.6013H89.3015V46.8073H85.0002V42.2156H80.2756V46.8073H75.5769V55.8279H80.3015V46.8156H85.0002V60.62L66.5375 60.6013V56.02H62.3171V42.2498H57.6171V56.0287H62.3029V60.62H66.4539V64.6335H62.0477V69.4868H66.5254L66.5249 73.6335H62.0477V78.6329H66.5249V83.0014H89.0477V78.6329H66.5249L66.5254 73.647ZM48.2144 33.0287H76.0002V37.6284L80.2987 37.624V42.224L75.9932 42.2284V37.6287H66.5517V42.2434H62.3171V37.6287H48.2284V42.224H39.5284V37.624H48.2144V33.0287ZM34.9536 78.4252V74.0421H44.173V69.4421H29.9536V73.9417V78.441H34.938V83.0252H43.9884V78.4252H34.9536ZM34.5523 46.647H25.6886V51.247H44.1599V55.8305H48.3945V51.2305H44.1886V46.647H39.5523V42.2263H34.5523V46.647ZM52.8799 64.647V55.8206H48.4022L48.4107 64.647H44.1761V69.4538H48.4107V64.647H52.8799ZM25.7062 51.2477V64.647H21.2285V51.2477H25.7062ZM25.719 64.647H29.5619H29.9536V69.441H25.719V64.8411V64.647ZM57.5545 69.4716H62.0322V73.6716H57.5545V69.4716ZM66.5217 83.0038V87.6038H43.9989V83.0038H66.5217Z" fill="#424242"/>
</g>
</g>
<defs>
<filter id="filter0_d_165_1217" x="13.2285" y="31.0287" width="93.7324" height="70.5751" filterUnits="userSpaceOnUse" color-interpolation-filters="sRGB">
<feFlood flood-opacity="0" result="BackgroundImageFix"/>
<feColorMatrix in="SourceAlpha" type="matrix" values="0 0 0 0 0 0 0 0 0 0 0 0 0 0 0 0 0 0 127 0" result="hardAlpha"/>
<feOffset dy="6"/>
<feGaussianBlur stdDeviation="4"/>
<feColorMatrix type="matrix" values="0 0 0 0 0.00679026 0 0 0 0 0.30676 0 0 0 0 0.0429935 0 0 0 0.638304 0"/>
<feBlend mode="normal" in2="BackgroundImageFix" result="effect1_dropShadow_165_1217"/>
<feBlend mode="normal" in="SourceGraphic" in2="effect1_dropShadow_165_1217" result="shape"/>
</filter>
<radialGradient id="paint0_radial_165_1217" cx="0" cy="0" r="1" gradientUnits="userSpaceOnUse" gradientTransform="translate(60) rotate(90) scale(153.43)">
<stop stop-color="#99E6C2"/>
<stop offset="1" stop-color="#36B33C"/>
</radialGradient>
<linearGradient id="paint1_linear_165_1217" x1="17.0257" y1="17.9999" x2="17.0257" y2="91.7725" gradientUnits="userSpaceOnUse">
<stop stop-color="#A9E6AB"/>
<stop offset="1" stop-color="#4BB84D"/>
</linearGradient>
</defs>
</svg>
