<svg width="42" height="57" viewBox="0 0 42 57" fill="none" xmlns="http://www.w3.org/2000/svg">
<path d="M37.4118 34.5346L39.9979 37.2493V33.5V3V1.5H38.4979H7.9979H4.2479L6.96342 4.08621L16.173 12.8573C9.02837 18.5592 5.76544 27.381 4.37717 35.202C2.89794 43.5355 3.48041 51.1121 4.04119 53.3627C4.09736 53.5881 4.22247 53.9803 4.54768 54.3136C4.96232 54.7385 5.54312 54.9062 6.10304 54.7933C6.54317 54.7046 6.85861 54.4664 7.02493 54.3243C7.21459 54.1623 7.38099 53.9752 7.52168 53.7996C8.05893 53.129 8.70128 52.0082 9.39304 50.7158C9.9784 49.6223 10.6462 48.3145 11.3739 46.8894C11.5289 46.5858 11.6866 46.2768 11.8469 45.9635C12.7636 44.1711 13.7705 42.2185 14.8473 40.2376C17.0095 36.26 19.4167 32.2383 21.8826 29.2235C23.1152 27.7166 24.3221 26.5118 25.4761 25.6923C26.3775 25.0522 27.1863 24.6894 27.9072 24.5575L37.4118 34.5346Z" fill="black" stroke="white" stroke-width="3"/>
</svg>
