<svg width="120" height="120" viewBox="0 0 120 120" fill="none" xmlns="http://www.w3.org/2000/svg">
<path fill-rule="evenodd" clip-rule="evenodd" d="M91.4062 0C108.75 0 120 11.25 120 28.5938V91.4062C120 108.75 108.75 120 91.4062 120H28.5938C11.25 120 0 108.75 0 91.4062V28.5938C0 11.25 11.25 0 28.5938 0H91.4062Z" fill="#252525"/>
<g clip-path="url(#clip0_165_1207)">
<path d="M46.3333 100C53.6901 100 59.6667 94.03 59.6667 86.6667V73.3333H46.3333C38.9766 73.3333 33 79.3034 33 86.6667C33 94.03 38.9766 100 46.3333 100Z" fill="#0ACF83"/>
<path d="M33 60C33 52.6432 38.9766 46.6667 46.3333 46.6667H59.6667V73.3333H46.3333C38.9766 73.3333 33 67.3633 33 60Z" fill="#A259FF"/>
<path d="M33 33.3333C33 25.9766 38.9766 20 46.3333 20H59.6667V46.6667H46.3333C38.9766 46.6667 33 40.6966 33 33.3333Z" fill="#F24E1E"/>
<path d="M59.666 20H72.9993C80.3561 20 86.3327 25.9766 86.3327 33.3333C86.3327 40.6966 80.3626 46.6667 72.9993 46.6667H59.666V20Z" fill="#FF7262"/>
<path d="M86.3327 60C86.3327 67.3633 80.3626 73.3333 72.9993 73.3333C65.6361 73.3333 59.666 67.3633 59.666 60C59.666 52.6432 65.6361 46.6667 72.9993 46.6667C80.3626 46.6667 86.3327 52.6432 86.3327 60Z" fill="#1ABCFE"/>
</g>
<defs>
<clipPath id="clip0_165_1207">
<rect width="53.3333" height="80" fill="white" transform="translate(33 20)"/>
</clipPath>
</defs>
</svg>
