<svg width="120" height="120" viewBox="0 0 120 120" fill="none" xmlns="http://www.w3.org/2000/svg">
<path fill-rule="evenodd" clip-rule="evenodd" d="M91.4062 0C108.75 0 120 11.25 120 28.5938V91.4062C120 108.75 108.75 120 91.4062 120H28.5938C11.25 120 0 108.75 0 91.4062V28.5938C0 11.25 11.25 0 28.5938 0H91.4062Z" fill="url(#paint0_linear_165_1121)"/>
<path fill-rule="evenodd" clip-rule="evenodd" d="M27.1753 52.0985C22.7044 43.9928 21 37.4582 21 33.0446C21 28.6309 22.0844 27.365 23.1848 26.3424C24.2851 25.3197 29.247 22.2606 30.0924 21.69C30.9379 21.1195 34.1646 20.0108 36.1881 22.9216C38.2116 25.8325 42.0221 31.6769 44.6492 35.5594C48.7717 41.0587 45.4874 43.4728 44.4266 44.9197C42.4745 47.5822 41.3505 48.2389 41.3505 51.5083C41.3505 54.7777 50.4875 64.0661 52.6722 66.3546C54.8404 68.6258 63.9446 76.6069 66.7657 77.0337C69.6066 77.4635 73.4098 74.4558 74.2184 73.6931C78.3319 70.5349 80.6539 72.9293 82.5487 73.97C84.4434 75.0108 93.0043 80.3453 95.6573 82.1435C98.1541 83.9416 97.9981 86.7206 97.9981 86.7206C97.9981 86.7206 92.8483 94.894 92.2241 95.8748C91.4438 97.0191 89.5711 97.9999 85.3577 97.9999C81.1442 97.9999 76.6423 97.2303 65.9433 91.3463C57.189 86.5318 48.8437 78.9926 44.4742 74.5789C39.9486 70.1653 32.2823 61.3574 27.1753 52.0985Z" fill="white"/>
<defs>
<linearGradient id="paint0_linear_165_1121" x1="0" y1="0" x2="0" y2="120" gradientUnits="userSpaceOnUse">
<stop stop-color="#64FA7E"/>
<stop offset="1" stop-color="#0CBA29"/>
</linearGradient>
</defs>
</svg>
