<svg width="120" height="120" viewBox="0 0 120 120" fill="none" xmlns="http://www.w3.org/2000/svg">
<path fill-rule="evenodd" clip-rule="evenodd" d="M91.2769 0.249023C108.549 0.249023 119.752 11.4523 119.752 28.7242V91.2759C119.752 108.548 108.549 119.751 91.2769 119.751H28.7252C11.4533 119.751 0.25 108.548 0.25 91.2759V28.7242C0.25 11.4523 11.4533 0.249023 28.7252 0.249023H91.2769Z" fill="white"/>
<path fill-rule="evenodd" clip-rule="evenodd" d="M91.2769 0.249023C108.549 0.249023 119.752 11.4523 119.752 28.7242V91.2759C119.752 108.548 108.549 119.751 91.2769 119.751H28.7252C11.4533 119.751 0.25 108.548 0.25 91.2759V28.7242C0.25 11.4523 11.4533 0.249023 28.7252 0.249023H91.2769Z" fill="white"/>
<path fill-rule="evenodd" clip-rule="evenodd" d="M8.18564 8.18564C3.27988 13.0914 0.497925 20.143 0.497925 28.7241V91.2759C0.497925 99.8569 3.27988 106.909 8.18564 111.814C13.0914 116.72 20.143 119.502 28.7241 119.502H91.2759C99.8569 119.502 106.909 116.72 111.814 111.814C116.72 106.909 119.502 99.8569 119.502 91.2759V28.7241C119.502 20.143 116.72 13.0914 111.814 8.18564C106.909 3.27988 99.8569 0.497925 91.2759 0.497925H28.7241C20.143 0.497925 13.0914 3.27988 8.18564 8.18564ZM7.83356 7.83356C12.8474 2.81971 20.0333 0 28.7241 0H91.2759C99.9667 0 107.153 2.81971 112.166 7.83356C117.18 12.8474 120 20.0333 120 28.7241V91.2759C120 99.9667 117.18 107.153 112.166 112.166C107.153 117.18 99.9667 120 91.2759 120H28.7241C20.0333 120 12.8474 117.18 7.83356 112.166C2.81971 107.153 0 99.9667 0 91.2759V28.7241C0 20.0333 2.81971 12.8474 7.83356 7.83356Z" fill="#A4A4A4"/>
<mask id="mask0_165_1164" style="mask-type:alpha" maskUnits="userSpaceOnUse" x="16" y="16" width="88" height="88">
<path fill-rule="evenodd" clip-rule="evenodd" d="M60.001 103.817C84.2007 103.817 103.818 84.1995 103.818 59.9998C103.818 35.8002 84.2007 16.1824 60.001 16.1824C35.8014 16.1824 16.1836 35.8002 16.1836 59.9998C16.1836 84.1995 35.8014 103.817 60.001 103.817Z" fill="white"/>
</mask>
<g mask="url(#mask0_165_1164)">
<path fill-rule="evenodd" clip-rule="evenodd" d="M19.543 29.5076L43.3354 70.9811L59.7938 40.0857L116.999 40.1547L65.1087 5.72733L19.543 29.5076Z" fill="#DC493C"/>
<path fill-rule="evenodd" clip-rule="evenodd" d="M109.874 40.091L59.7034 40.0843C59.7034 40.0843 67.4377 41.3336 70.1802 43.6011C75.3011 47.8347 79.387 55.7378 79.387 55.7378L50.2676 120.517L106.492 87.2223L109.874 40.091Z" fill="#FFCD41"/>
<path fill-rule="evenodd" clip-rule="evenodd" d="M50.6156 116.363L77.4108 69.6663L43.5214 71.0663L19.5595 29.5493L12.4277 88.5618L50.6156 116.363Z" fill="#139F5B"/>
<path fill-rule="evenodd" clip-rule="evenodd" d="M64.7061 75.2086L57.8398 103.776L77.2188 70.0468L64.7061 75.2086Z" fill="url(#paint0_linear_165_1164)"/>
<path fill-rule="evenodd" clip-rule="evenodd" d="M23.2891 36.0281L41.298 54.4554L41.7664 68.0485L23.2891 36.0281Z" fill="url(#paint1_linear_165_1164)"/>
<path fill-rule="evenodd" clip-rule="evenodd" d="M59.9004 40.0916H99.0386L66.8305 48.8074L59.9004 40.0916Z" fill="url(#paint2_linear_165_1164)"/>
<path d="M60.0014 78.4231C70.1763 78.4231 78.4246 70.1748 78.4246 59.9999C78.4246 49.825 70.1763 41.5766 60.0014 41.5766C49.8265 41.5766 41.5781 49.825 41.5781 59.9999C41.5781 70.1748 49.8265 78.4231 60.0014 78.4231Z" fill="#4687F4"/>
<path fill-rule="evenodd" clip-rule="evenodd" d="M40.084 60C40.084 49.0001 49.0011 40.0829 60.001 40.0829C71.0009 40.0829 79.918 49.0001 79.918 60C79.918 70.9999 71.0009 79.917 60.001 79.917C49.0011 79.917 40.084 70.9999 40.084 60ZM60.001 43.0705C50.6511 43.0705 43.0715 50.65 43.0715 60C43.0715 69.3499 50.6511 76.9294 60.001 76.9294C69.3509 76.9294 76.9305 69.3499 76.9305 60C76.9305 50.65 69.3509 43.0705 60.001 43.0705Z" fill="white"/>
</g>
<defs>
<linearGradient id="paint0_linear_165_1164" x1="59.0049" y1="63.6693" x2="42.1415" y2="86.2097" gradientUnits="userSpaceOnUse">
<stop stop-color="#13834D"/>
<stop offset="1" stop-color="#139F5B"/>
</linearGradient>
<linearGradient id="paint1_linear_165_1164" x1="52.5823" y1="47.6698" x2="24.9289" y2="36.9957" gradientUnits="userSpaceOnUse">
<stop stop-color="#B4372C"/>
<stop offset="1" stop-color="#CF4539"/>
</linearGradient>
<linearGradient id="paint2_linear_165_1164" x1="47.8376" y1="43.5443" x2="50.0456" y2="58.018" gradientUnits="userSpaceOnUse">
<stop stop-color="#D3AA36"/>
<stop offset="1" stop-color="#FFCD41" stop-opacity="0.01"/>
</linearGradient>
</defs>
</svg>
