<svg width="66" height="79" viewBox="0 0 66 79" fill="none" xmlns="http://www.w3.org/2000/svg">
<path fill-rule="evenodd" clip-rule="evenodd" d="M44.3031 12.3999C47.3264 9.1137 48.9914 4.6007 48.7285 0C44.6098 0 39.8338 2.4099 36.8106 5.959C34.4445 8.8946 31.9032 13.4953 32.8233 18.096C37.0734 18.6217 41.6741 15.949 44.3031 12.3999ZM48.3341 19.1037C41.937 19.1037 36.2848 22.6528 33.2615 22.6528C30.1067 22.6528 25.5061 18.9285 20.3358 19.1037C13.5881 19.2352 7.41013 23.2224 3.94873 29.0937C1.49503 33.3001 0.531035 38.2513 0.618735 43.2901C0.750135 52.7981 4.47443 62.7005 8.85603 69.01C12.2299 73.8297 16.0418 79 21.4312 79C26.2947 79 28.0912 75.7576 34.4445 75.7576C40.3596 75.7576 42.1999 79 47.3264 79C52.7157 79 56.2648 74.0926 59.4634 69.2291C63.4944 63.5768 64.8527 58.1875 65.028 57.9684C64.8527 57.9684 54.6874 53.8497 54.2931 42.107C54.2931 31.8103 62.6619 27.1658 63.0124 26.9468C58.4556 19.9362 51.0945 19.1037 48.3341 19.1037Z" fill="white"/>
</svg>
